<?xml version="1.0" encoding="UTF-8"?>
<svg version="1.1" xmlns="http://www.w3.org/2000/svg" width="1066" height="800">
<path d="M0 0 C351.78 0 703.56 0 1066 0 C1066 264 1066 528 1066 800 C714.22 800 362.44 800 0 800 C0 536 0 272 0 0 Z " fill="#F7F7F7" transform="translate(0,0)"/>
<path d="M0 0 C1.0729739 -0.00384115 2.1459478 -0.00768229 3.25143605 -0.01163983 C4.42437001 -0.01077335 5.59730396 -0.00990687 6.80578136 -0.00901413 C8.05649856 -0.01198525 9.30721576 -0.01495637 10.59583348 -0.01801753 C14.06533577 -0.02607472 17.53481736 -0.0278764 21.00432789 -0.028615 C24.74759958 -0.03046791 28.49086059 -0.03801668 32.23412609 -0.04475021 C40.42059216 -0.05832735 48.60705334 -0.06435796 56.7935288 -0.06876087 C61.9099308 -0.07152567 67.02633093 -0.07576359 72.14273167 -0.08026505 C86.32035516 -0.09245941 100.49797715 -0.10275676 114.67560577 -0.10614014 C116.03659127 -0.10646949 116.03659127 -0.10646949 117.42507143 -0.10680549 C118.33452756 -0.10702377 119.24398369 -0.10724204 120.1809991 -0.10746694 C122.0237966 -0.1079104 123.8665941 -0.10835696 125.70939159 -0.10880661 C126.62347647 -0.10902804 127.53756134 -0.10924947 128.47934576 -0.10947761 C143.27012073 -0.11342033 158.06084627 -0.1308575 172.85160217 -0.15416613 C188.0527665 -0.17792712 203.25390609 -0.19034423 218.45508927 -0.19150805 C226.98345517 -0.19242242 235.51175676 -0.19811393 244.04010487 -0.21632767 C251.3071413 -0.23179319 258.57409356 -0.2368115 265.84114335 -0.22858956 C269.54338586 -0.22470507 273.2454592 -0.22550353 276.94768047 -0.23964691 C294.17748438 -0.30170822 310.76188139 -0.3132295 327.1193037 5.81892776 C327.81451122 6.07383987 328.50971874 6.32875198 329.22599316 6.5913887 C347.90787207 13.65165855 363.43788033 24.15259615 377.6193037 38.13142776 C378.39789745 38.89713089 379.1764912 39.66283401 379.9786787 40.45174026 C396.16757801 57.38693634 406.02899555 79.36606317 410.6193037 102.13142776 C410.79315468 102.97675442 410.96700565 103.82208107 411.14612484 104.69302368 C413.27921429 117.01795952 412.90485704 129.45822131 412.88075304 141.92540765 C412.87618693 145.42520549 412.88323285 148.9249841 412.88871288 152.42477798 C412.89756568 159.26427519 412.89570299 166.10372827 412.8898876 172.94322714 C412.88535335 178.50862699 412.8847658 184.07401457 412.88693523 189.63941574 C412.8872417 190.43440127 412.88754817 191.2293868 412.88786392 192.04846279 C412.88850344 193.66399116 412.88915187 195.27951952 412.8898091 196.89504787 C412.89550074 212.01460349 412.88897363 227.13413478 412.87820837 242.2536864 C412.86928084 255.19194962 412.87082059 268.13017692 412.88004589 281.06843948 C412.89078115 296.13119749 412.89494428 311.19393421 412.88882136 326.25669551 C412.88818434 327.86718925 412.8875556 329.47768298 412.88693523 331.08817673 C412.88662668 331.88034195 412.88631813 332.67250717 412.88600023 333.4886774 C412.88428251 339.03731642 412.88716849 344.5859418 412.89189434 350.1345787 C412.8975398 356.91128875 412.8959108 363.68795255 412.88533285 370.4646574 C412.88012388 373.91401433 412.8779363 377.36329454 412.88463116 380.81265068 C412.91143545 399.03131569 412.79997759 416.98881345 407.9943037 434.69392776 C407.60516796 436.14315628 407.60516796 436.14315628 407.20817089 437.62166214 C401.44717907 458.07961429 390.36383957 475.03842429 375.6193037 490.13142776 C374.88067089 490.93193558 374.14203808 491.73244339 373.38102245 492.55720901 C367.47866472 498.80486007 360.80978669 503.51562891 353.6193037 508.13142776 C352.63832714 508.76177933 351.65735058 509.39213089 350.64664745 510.04158401 C330.96964899 522.0914283 308.62696751 527.46999926 285.66770458 527.39212418 C284.44337711 527.39594972 283.21904964 527.39977527 281.95762134 527.40371674 C278.60345469 527.41217059 275.24951047 527.4118438 271.89535093 527.40753615 C268.26057889 527.40504841 264.62583156 527.4141083 260.99106884 527.42157364 C253.88687815 527.43426665 246.78272536 527.43612107 239.67852524 527.43377338 C233.89811712 527.43198384 228.11772041 527.43375342 222.33731365 527.43799782 C221.0990419 527.4388906 221.0990419 527.4388906 219.83575456 527.43980142 C218.1582192 527.44101329 216.48068384 527.44222742 214.80314848 527.4434438 C199.10130917 527.45429873 183.39949139 527.45216667 167.69765088 527.44605895 C153.36791826 527.44089269 139.03825368 527.45214122 124.70853451 527.47115717 C109.95681608 527.49058141 95.20512976 527.49878348 80.45339847 527.49503392 C72.18667882 527.49312868 63.92001705 527.49554289 55.65330791 527.50974846 C48.61491005 527.52172196 41.57660567 527.52300088 34.53820637 527.51095829 C30.95514691 527.5051109 27.37225794 527.50385362 23.78921032 527.51596069 C5.98234673 527.5720441 -11.53674691 527.59856366 -28.3806963 521.13142776 C-29.39776661 520.80658401 -30.41483692 520.48174026 -31.46272755 520.14705276 C-62.55944064 509.9559863 -87.2466397 486.39002399 -102.20735645 457.69661331 C-113.95352814 434.29006534 -116.006208 409.99620643 -115.87427688 384.10911226 C-115.86086667 380.58903642 -115.87107403 377.06900722 -115.87804127 373.54892349 C-115.88802088 366.68887803 -115.87697668 359.82902849 -115.85834067 352.96900745 C-115.83736809 344.95520304 -115.83771836 336.94143873 -115.83868583 328.92761205 C-115.83968257 314.61888217 -115.82148371 300.31024236 -115.79231739 286.00154495 C-115.76411995 272.16070797 -115.74997762 258.31995012 -115.75130177 244.47908401 C-115.75138168 243.6255228 -115.75146159 242.77196158 -115.75154392 241.89253487 C-115.75162463 241.04035235 -115.75170534 240.18816984 -115.7517885 239.31016362 C-115.75317245 223.481456 -115.74136797 207.65278155 -115.72348206 191.82408474 C-115.71748315 186.25533915 -115.71532703 180.68659972 -115.71441746 175.11785126 C-115.71304508 168.32412039 -115.70400344 161.53044554 -115.68575184 154.7367384 C-115.67659852 151.27934822 -115.67039385 147.82202902 -115.67294025 144.36462593 C-115.68345131 104.49988086 -109.09535799 69.25780767 -81.3806963 39.13142776 C-80.57889942 38.24713089 -79.77710255 37.36283401 -78.9510088 36.45174026 C-60.56245204 17.0985379 -36.22229542 6.18063801 -10.3806963 1.13142776 C-9.58626788 0.95342801 -8.79183947 0.77542826 -7.97333747 0.59203458 C-5.26006768 0.10999697 -2.75472024 0.00371193 0 0 Z " fill="#2F3659" transform="translate(384.3806962966919,135.86857223510742)"/>
<path d="M0 0 C0.64549805 0.32548828 1.29099609 0.65097656 1.95605469 0.98632812 C16.75130214 8.58213466 30.00909592 18.49416485 42 30 C42.94101562 30.87785156 43.88203125 31.75570312 44.8515625 32.66015625 C77.74412004 63.91424356 93.87656373 107.41778425 96 152 C96 152.66 96 153.32 96 154 C90.77135257 154.07476069 85.54302372 154.12888763 80.31396484 154.16479492 C78.53917004 154.17978093 76.76441163 154.20017682 74.98974609 154.22631836 C56.01692747 154.49857884 56.01692747 154.49857884 48 151 C46.48212891 150.36191406 46.48212891 150.36191406 44.93359375 149.7109375 C30.38566474 141.92472197 24.44363775 130.64039892 18.0625 116.0625 C6.28710023 89.25902609 -12.66960169 69.63072596 -40.11328125 58.3828125 C-66.52599445 48.58801143 -95.74275229 47.90217533 -121.78515625 59.44140625 C-123.37650391 60.21291016 -123.37650391 60.21291016 -125 61 C-125.96808594 61.46277344 -126.93617188 61.92554688 -127.93359375 62.40234375 C-153.70378916 75.59814594 -171.96725037 98.56565279 -180.93359375 125.83984375 C-188.6423295 152.13806667 -185.06269223 183.59911872 -172.13085938 207.65991211 C-158.36119232 231.99412227 -136.16060672 249.93791336 -109.42578125 258.08984375 C-106.29321736 258.84936768 -103.17711846 259.45964609 -100 260 C-98.48792969 260.30357422 -98.48792969 260.30357422 -96.9453125 260.61328125 C-70.59185407 265.44365331 -43.6165079 259.02594687 -21 245 C-9.79407262 237.10740122 0.00955545 227.14553771 9.625 217.4375 C10.53378906 216.52419922 11.44257812 215.61089844 12.37890625 214.66992188 C14.58827955 212.44892029 16.79526031 210.22559967 19 208 C22.84498718 209.58178356 25.48752273 212.17200157 28.3918457 215.05371094 C28.91763214 215.56796127 29.44341858 216.08221161 29.98513794 216.61204529 C31.72111043 218.31374611 33.44912743 220.02322221 35.17578125 221.734375 C35.77016684 222.32185768 36.36455242 222.90934036 36.97694969 223.51462555 C40.12896383 226.63080183 43.2747788 229.75308745 46.41577148 232.88037109 C49.63479803 236.08294726 52.87417966 239.26404811 56.11900043 242.44045639 C58.6318913 244.9081662 61.12866253 247.39173785 63.62160301 249.87958527 C64.80726429 251.05743371 65.998713 252.22949011 67.19637489 253.39513397 C77.81939088 263.75290385 85.72324384 274.67892613 87 290 C87.0928125 290.845625 87.185625 291.69125 87.28125 292.5625 C87.97037334 304.13977212 83.74804681 316.09440615 76.6015625 325.1171875 C70.99225573 331.33290581 65.02578591 337.19103467 59 343 C53.68931195 338.56583328 48.75163383 333.88483314 43.87890625 328.9765625 C42.76176491 327.85729874 42.76176491 327.85729874 41.62205505 326.71542358 C39.26649173 324.35430611 36.91444784 321.98971838 34.5625 319.625 C32.95661237 318.01409144 31.35049484 316.40341204 29.74414062 314.79296875 C25.82676487 310.86462487 21.91226513 306.93343326 18 303 C17.08508789 303.52964355 16.17017578 304.05928711 15.22753906 304.60498047 C-3.08008373 315.16365438 -21.37123768 322.78474273 -41.9375 327.8125 C-42.77700195 328.01963623 -43.61650391 328.22677246 -44.48144531 328.44018555 C-68.37381348 334.01397533 -97.34253855 333.12028861 -121 327 C-121.75716309 326.81276367 -122.51432617 326.62552734 -123.29443359 326.43261719 C-168.49126004 315.06716116 -207.1702819 284.69254618 -231 245 C-246.36599205 218.27774204 -254.68500639 187.83455222 -254.5 157.0625 C-254.49823761 156.2679541 -254.49647522 155.4734082 -254.49465942 154.65478516 C-254.35477805 126.10617088 -247.72092381 99.07339475 -234 74 C-233.38511719 72.83339844 -232.77023437 71.66679687 -232.13671875 70.46484375 C-210.49477088 30.72072831 -172.7036 1.38081701 -129.61132812 -11.7265625 C-125.44417027 -12.88471719 -121.2547762 -13.80996038 -117.00537109 -14.61035156 C-115.03186505 -14.99380854 -113.07204514 -15.44565791 -111.11328125 -15.8984375 C-74.49226219 -23.83277025 -33.08213218 -16.76067663 0 0 Z " fill="#53E9E9" transform="translate(615,233)"/>
<path d="M0 0 C3.84498718 1.58178356 6.48752273 4.17200157 9.3918457 7.05371094 C9.91763214 7.56796127 10.44341858 8.08221161 10.98513794 8.61204529 C12.72111043 10.31374611 14.44912743 12.02322221 16.17578125 13.734375 C16.77016684 14.32185768 17.36455242 14.90934036 17.97694969 15.51462555 C21.12896383 18.63080183 24.2747788 21.75308745 27.41577148 24.88037109 C30.63479803 28.08294726 33.87417966 31.26404811 37.11900043 34.44045639 C39.6318913 36.9081662 42.12866253 39.39173785 44.62160301 41.87958527 C45.80726429 43.05743371 46.998713 44.22949011 48.19637489 45.39513397 C58.81939088 55.75290385 66.72324384 66.67892613 68 82 C68.0928125 82.845625 68.185625 83.69125 68.28125 84.5625 C68.97037334 96.13977212 64.74804681 108.09440615 57.6015625 117.1171875 C51.99225573 123.33290581 46.02578591 129.19103467 40 135 C34.68931195 130.56583328 29.75163383 125.88483314 24.87890625 120.9765625 C24.13414536 120.23038666 23.38938446 119.48421082 22.62205505 118.71542358 C20.26649173 116.35430611 17.91444784 113.98971838 15.5625 111.625 C13.95661237 110.01409144 12.35049484 108.40341204 10.74414062 106.79296875 C6.82676487 102.86462487 2.91226513 98.93343326 -1 95 C-1.91491211 95.52964355 -2.82982422 96.05928711 -3.77246094 96.60498047 C-22.08008373 107.16365438 -40.37123768 114.78474273 -60.9375 119.8125 C-61.77700195 120.01963623 -62.61650391 120.22677246 -63.48144531 120.44018555 C-87.37381348 126.01397533 -116.34253855 125.12028861 -140 119 C-140.75716309 118.81276367 -141.51432617 118.62552734 -142.29443359 118.43261719 C-161.85651137 113.51342369 -181.44166439 104.50619168 -198 93 C-194.8535406 92.00031571 -192.72779937 92.04421188 -189.515625 92.7421875 C-188.66226562 92.92136719 -187.80890625 93.10054687 -186.9296875 93.28515625 C-186.04539062 93.47980469 -185.16109375 93.67445313 -184.25 93.875 C-172.86408474 96.32449216 -162.13650052 97.20844869 -150.5 97.1875 C-149.78080383 97.18623108 -149.06160767 97.18496216 -148.32061768 97.18365479 C-104.27156327 97.0350603 -66.41680311 80.13310921 -34 51 C-33.32453125 50.39800781 -32.6490625 49.79601562 -31.953125 49.17578125 C-18.7516691 36.69726222 -7.57013852 19.47904752 0 3 C0 2.01 0 1.02 0 0 Z " fill="#48D0DF" transform="translate(634,441)"/>
</svg>
